# Blender v2.78 (sub 0) OBJ File: ''
# www.blender.org
mtllib strengthBoulder.mtl
o Strength_Rock
v 0.465947 0.167831 0.000000
v 0.399912 0.003892 0.000000
v 0.426465 0.003892 -0.317686
v -0.208100 0.003892 -0.438362
v -0.375075 0.003892 -0.356412
v -0.423498 0.155968 -0.383012
v 0.479937 0.651479 0.412960
v 0.413260 0.155968 0.416607
v 0.508373 0.655478 0.000000
v 0.375570 0.003892 0.357823
v 0.479937 0.651479 -0.419015
v 0.451732 0.155968 -0.403360
v 0.391722 0.495214 0.472775
v 0.425740 0.921124 0.455650
v 0.202967 0.003892 0.405782
v 0.266782 0.495214 -0.484945
v 0.433347 0.952579 -0.448560
v 0.358681 0.003892 -0.426457
v -0.392003 0.512336 0.487465
v 0.424362 0.993487 0.000000
v 0.025535 1.003420 0.439482
v 0.248621 0.157832 0.458230
v -0.240381 0.512336 -0.500240
v -0.424120 0.937527 0.461942
v -0.233297 0.157986 0.470885
v -0.482445 0.555176 0.412565
v -0.433915 0.155968 0.362335
v 0.020677 1.020082 0.000000
v 0.022062 1.015287 -0.459922
v -0.190510 0.003892 0.417685
v -0.413722 1.008497 0.000000
v -0.469049 0.953040 0.000000
v -0.356727 0.003892 0.335734
v -0.482445 0.555176 -0.396200
v -0.424120 0.937527 -0.434374
v -0.467572 0.164095 0.000000
v -0.397108 0.003892 0.000000
v -0.490073 0.587258 0.000000
vt 1.5005 1.0895
vt 1.4984 1.0000
vt 1.8191 1.0000
vt 2.6935 1.0000
vt 3.0000 1.0000
vt 3.0000 1.0895
vt 1.0000 1.2914
vt 1.0000 1.0895
vt 1.5018 1.2914
vt 1.0000 1.0000
vt 2.0000 1.2914
vt 2.0000 1.0895
vt 0.8963 1.2567
vt 1.0000 1.5000
vt 0.7043 1.0000
vt 2.2292 1.2239
vt 2.0000 1.5000
vt 2.0000 1.0000
vt 0.1073 1.2588
vt 1.5000 1.5000
vt 0.5000 1.5000
vt 1.0000 1.7445
vt 0.7500 1.0904
vt 2.7279 1.2320
vt 0.0000 1.5000
vt 0.2678 1.0905
vt 0.0000 1.2914
vt 0.0000 1.0895
vt 0.5000 1.7445
vt 0.5000 2.0000
vt 1.0000 2.0000
vt 0.3107 1.0000
vt 2.5000 1.5000
vt 0.0755 1.7445
vt 0.0000 1.7445
vt 0.0000 1.0000
vt 3.0000 1.2914
vt 3.0000 1.5000
vt 0.0000 2.0000
vt -0.4855 1.0844
vt -0.4855 1.0000
vt -1.0000 1.0895
vt 0.0000 1.0895
vt -1.0000 1.2914
vt 0.0000 1.2914
vt -0.4855 1.3073
vt -1.0000 1.0000
vt 0.0000 1.0000
vt -1.0000 1.5000
vt 0.0000 1.5000
vt -0.5000 1.5000
vn 0.9767 -0.2104 0.0428
vn 0.9253 -0.3727 0.0700
vn 0.9343 -0.3030 -0.1877
vn -0.1748 -0.1601 -0.9715
vn -0.7765 -0.3400 -0.5304
vn -0.7762 -0.2344 -0.5853
vn 0.8910 0.0145 0.4537
vn 0.7155 -0.2704 0.6441
vn 0.9979 0.0649 0.0052
vn 0.7269 -0.4105 0.5505
vn 0.8140 -0.0002 -0.5808
vn 0.8037 -0.1423 -0.5778
vn 0.3475 -0.0455 0.9366
vn 0.5644 0.5267 0.6355
vn 0.1180 -0.3569 0.9266
vn 0.1534 -0.0321 -0.9876
vn 0.5795 0.5517 -0.5999
vn 0.3975 -0.2246 -0.8897
vn -0.3556 -0.0629 0.9325
vn 0.6365 0.7708 0.0240
vn 0.0168 0.7483 0.6631
vn 0.1253 -0.2216 0.9670
vn -0.1746 -0.0338 -0.9840
vn -0.5534 0.5331 0.6399
vn -0.2000 -0.2418 0.9495
vn -0.9084 -0.0196 0.4175
vn -0.8070 -0.3197 0.4964
vn 0.0193 0.9997 0.0136
vn 0.0034 0.7343 -0.6788
vn -0.1716 -0.3649 0.9151
vn -0.4088 0.9126 0.0019
vn -0.9136 0.4066 -0.0031
vn -0.7041 -0.4628 0.5385
vn -0.8447 -0.0172 -0.5350
vn -0.6015 0.5261 -0.6011
vn -0.9686 -0.2483 -0.0081
vn -0.9161 -0.4009 -0.0008
vn -0.9996 0.0264 -0.0009
usemtl it0010_rock.png
s 1
f 1/1/1 2/2/2 3/3/3
f 4/4/4 5/5/5 6/6/6
f 1/1/1 7/7/7 8/8/8
f 1/1/1 9/9/9 7/7/7
f 1/1/1 8/8/8 10/10/10
f 1/1/1 11/11/11 9/9/9
f 1/1/1 10/10/10 2/2/2
f 1/1/1 12/12/12 11/11/11
f 1/1/1 3/3/3 12/12/12
f 7/7/7 13/13/13 8/8/8
f 7/7/7 9/9/9 14/14/14
f 7/7/7 14/14/14 13/13/13
f 10/10/10 8/8/8 15/15/15
f 11/11/11 12/12/12 16/16/16
f 11/11/11 17/17/17 9/9/9
f 11/11/11 16/16/16 17/17/17
f 3/3/3 18/18/18 12/12/12
f 12/12/12 18/18/18 16/16/16
f 14/14/14 19/19/19 13/13/13
f 14/14/14 9/9/9 20/20/20
f 14/14/14 21/21/21 19/19/19
f 14/14/14 20/22/20 21/21/21
f 20/20/20 9/9/9 17/17/17
f 8/8/8 22/23/22 15/15/15
f 8/8/8 13/13/13 22/23/22
f 18/18/18 23/24/23 16/16/16
f 18/18/18 4/4/4 23/24/23
f 16/16/16 23/24/23 17/17/17
f 19/19/19 21/21/21 24/25/24
f 19/19/19 25/26/25 13/13/13
f 19/19/19 24/25/24 26/27/26
f 19/19/19 27/28/27 25/26/25
f 19/19/19 26/27/26 27/28/27
f 13/13/13 25/26/25 22/23/22
f 20/22/20 28/29/28 21/21/21
f 20/22/20 29/30/29 28/29/28
f 20/22/20 17/31/17 29/30/29
f 15/15/15 22/23/22 30/32/30
f 22/23/22 25/26/25 30/32/30
f 4/4/4 6/6/6 23/24/23
f 17/17/17 23/24/23 29/33/29
f 24/25/24 21/21/21 31/34/31
f 24/25/24 31/34/31 32/35/32
f 28/29/28 29/30/29 31/34/31
f 28/29/28 31/34/31 21/21/21
f 27/28/27 33/36/33 25/26/25
f 25/26/25 33/36/33 30/32/30
f 6/6/6 34/37/34 23/24/23
f 29/33/29 23/24/23 35/38/35
f 35/38/35 23/24/23 34/37/34
f 32/35/32 31/34/31 35/39/35
f 35/39/35 31/34/31 29/30/29
f 36/40/36 37/41/37 27/42/27
f 36/40/36 6/43/6 37/41/37
f 36/40/36 27/42/27 26/44/26
f 36/40/36 34/45/34 6/43/6
f 36/40/36 26/44/26 38/46/38
f 36/40/36 38/46/38 34/45/34
f 37/41/37 33/47/33 27/42/27
f 37/41/37 6/43/6 5/48/5
f 26/44/26 24/49/24 38/46/38
f 34/45/34 38/46/38 35/50/35
f 24/49/24 32/51/32 38/46/38
f 38/46/38 32/51/32 35/50/35
