# Blender v2.78 (sub 0) OBJ File: ''
# www.blender.org
mtllib kick.mtl
o map_ob000_item_09_kick_map_ob000_item_09_kick.001
v 0.400000 -0.135876 0.029810
v -0.400000 0.429810 -0.535876
v 0.400000 0.429810 -0.535876
v -0.400000 -0.135876 0.029810
v 0.400000 0.429810 -0.535876
v -0.400000 0.535876 -0.429810
v 0.400000 0.535876 -0.429810
v -0.400000 0.429810 -0.535876
v 0.400000 0.535876 -0.429810
v -0.400000 -0.029810 0.135876
v 0.400000 -0.029810 0.135876
v -0.400000 0.535876 -0.429810
v 0.400000 -0.029810 0.135876
v -0.400000 -0.135876 0.029810
v 0.400000 -0.135876 0.029810
v -0.400000 -0.029810 0.135876
v -0.400000 -0.029810 0.135876
v -0.400000 0.429810 -0.535876
v -0.400000 -0.135876 0.029810
v -0.400000 0.535876 -0.429810
v 0.400000 0.535876 -0.429810
v 0.400000 -0.135876 0.029810
v 0.400000 0.429810 -0.535876
v 0.400000 -0.029810 0.135876
vt 0.2510 0.5020
vt 0.3740 0.7480
vt 0.2510 0.7480
vt 0.3740 0.5020
vt 0.6483 0.7541
vt 0.6322 0.9963
vt 0.6322 0.7541
vt 0.6483 0.9963
vt 0.3740 0.7480
vt 0.2510 0.5020
vt 0.3740 0.5020
vt 0.2510 0.7480
vt 0.6322 0.9963
vt 0.6483 0.7541
vt 0.6483 0.9963
vt 0.6322 0.7541
vt 0.6322 0.9963
vt 0.6483 0.7541
vt 0.6483 0.9963
vt 0.6322 0.7541
vt 0.6322 0.9963
vt 0.6483 0.7541
vt 0.6483 0.9963
vt 0.6322 0.7541
vn 0.0000 -0.7071 -0.7071
vn 0.0000 0.7071 -0.7071
vn 0.0000 0.7071 0.7071
vn 0.0000 -0.7071 0.7071
vn -1.0000 0.0000 0.0000
vn 1.0000 0.0000 0.0000
usemtl mat_map_ob000_item_007
s off
f 1/1/1 2/2/1 3/3/1
f 1/1/1 4/4/1 2/2/1
f 5/5/2 6/6/2 7/7/2
f 5/5/2 8/8/2 6/6/2
f 9/9/3 10/10/3 11/11/3
f 9/9/3 12/12/3 10/10/3
f 13/13/4 14/14/4 15/15/4
f 13/13/4 16/16/4 14/14/4
f 17/17/5 18/18/5 19/19/5
f 17/17/5 20/20/5 18/18/5
f 21/21/6 22/22/6 23/23/6
f 21/21/6 24/24/6 22/22/6
