# Blender v2.78 (sub 0) OBJ File: 'Low poly nature pack final.blend'
# www.blender.org
mtllib tree.mtl
o Cylinder.020
v 0.019778 -0.055790 -0.188965
v 0.173538 -0.055790 -0.077354
v 0.153759 -0.055790 0.111611
v -0.019778 -0.055790 0.188965
v -0.173538 -0.055790 0.077354
v -0.153759 -0.055790 -0.111611
v 0.012137 1.676530 -0.115960
v 0.106493 1.676530 -0.047469
v 0.094356 1.676530 0.068491
v -0.012137 1.676530 0.115960
v -0.106493 1.676530 0.047469
v -0.094356 1.676530 -0.068491
v -0.000000 -0.055790 0.000000
v 0.000000 1.676530 0.000000
vn 0.0000 -1.0000 0.0000
vn 0.0000 1.0000 0.0000
vn 0.5870 0.0367 -0.8087
vn 0.9939 0.0367 0.1040
vn 0.4069 0.0367 0.9128
vn -0.5870 0.0367 0.8087
vn -0.9939 0.0367 -0.1040
vn -0.4069 0.0367 -0.9128
usemtl Material.001
s off
f 13//1 1//1 2//1
f 14//2 8//2 7//2
f 13//1 2//1 3//1
f 14//2 9//2 8//2
f 13//1 3//1 4//1
f 14//2 10//2 9//2
f 13//1 4//1 5//1
f 14//2 11//2 10//2
f 13//1 5//1 6//1
f 14//2 12//2 11//2
f 6//1 1//1 13//1
f 14//2 7//2 12//2
f 1//3 7//3 8//3 2//3
f 2//4 8//4 9//4 3//4
f 3//5 9//5 10//5 4//5
f 4//6 10//6 11//6 5//6
f 5//7 11//7 12//7 6//7
f 7//8 1//8 6//8 12//8
o Icosphere.018_Icosphere.011
v -0.035640 0.938426 0.197532
v 0.678286 1.011256 -0.097935
v -0.040181 1.348143 0.917452
v -0.908026 1.573298 0.516231
v -0.873547 1.348143 -0.439251
v -0.151637 1.039656 -0.736472
v -0.504070 2.485835 0.628336
v 0.773993 1.308697 0.592634
v -0.512244 1.667158 0.918360
v -1.087778 1.667158 -0.018597
v 0.835651 1.340057 -0.554837
v 0.207292 1.848315 1.112334
v -0.982756 2.157033 0.562134
v -0.935492 1.848315 -0.748095
v 0.940672 1.829933 0.025894
v 0.302819 2.236997 0.816482
v 0.145092 1.688862 -1.094081
v 0.760921 1.923793 -0.508934
v 0.726442 2.148948 0.446547
v 0.082244 2.558665 0.125121
v -0.698413 2.457435 -0.400611
v -0.106924 2.148948 -0.910155
vn 0.1537 -0.8584 0.4895
vn 0.2394 -0.9033 0.3559
vn 0.0539 -0.9920 -0.1142
vn -0.4485 -0.6654 0.5967
vn -0.4130 -0.7926 0.4485
vn -0.7350 -0.6654 0.1303
vn -0.5367 -0.8254 0.1751
vn -0.4091 -0.9112 -0.0480
vn 0.3350 -0.8157 -0.4716
vn 0.3065 -0.4734 0.8258
vn 0.7439 0.1551 0.6501
vn -0.6883 -0.1440 0.7110
vn -0.3228 0.3339 0.8856
vn -0.3332 0.3054 0.8920
vn -0.1848 -0.2761 0.9432
vn -0.9248 -0.2761 -0.2616
vn -0.9359 0.3339 -0.1124
vn -0.8959 0.4241 -0.1323
vn -0.9454 -0.1440 0.2925
vn -0.3318 -0.3343 -0.8821
vn -0.2661 0.2286 -0.9364
vn -0.5035 -0.4982 -0.7059
vn 0.9182 0.1177 0.3783
vn 0.9646 -0.2598 0.0447
vn 0.9454 0.1440 -0.2925
vn 0.9213 -0.3868 0.0389
vn 0.0012 0.6055 0.7959
vn 0.6567 0.3479 0.6691
vn -0.5721 0.8157 0.0855
vn -0.3507 0.5633 -0.7481
vn 0.6528 0.1421 -0.7441
vn 0.3122 -0.5639 -0.7646
vn 0.7350 0.6654 -0.1303
vn 0.5868 0.7926 -0.1656
vn 0.1968 0.9114 0.3613
vn 0.4168 0.8677 0.2708
vn -0.1263 0.9920 -0.0035
vn 0.1422 0.9112 -0.3866
vn 0.4648 0.5363 -0.7045
vn 0.3989 0.8254 -0.3995
usemtl yellow.001
s off
f 17//9 15//9 22//9
f 16//10 22//10 15//10
f 15//11 20//11 16//11
f 18//12 17//12 23//12
f 18//13 15//13 17//13
f 19//14 18//14 24//14
f 19//15 15//15 18//15
f 20//16 15//16 19//16
f 25//17 16//17 20//17
f 26//18 17//18 22//18
f 33//19 26//19 22//19
f 27//20 18//20 23//20
f 23//21 26//21 27//21
f 21//22 27//22 26//22
f 26//23 23//23 17//23
f 28//24 19//24 24//24
f 24//25 27//25 28//25
f 35//26 28//26 27//26
f 27//27 24//27 18//27
f 20//28 28//28 31//28
f 36//29 31//29 28//29
f 28//30 20//30 19//30
f 29//31 33//31 22//31
f 22//32 25//32 29//32
f 32//33 29//33 25//33
f 25//34 22//34 16//34
f 30//35 21//35 26//35
f 33//36 30//36 26//36
f 21//37 35//37 27//37
f 35//38 36//38 28//38
f 31//39 32//39 25//39
f 31//40 25//40 20//40
f 29//41 32//41 33//41
f 34//42 33//42 32//42
f 34//43 21//43 30//43
f 30//44 33//44 34//44
f 21//45 34//45 35//45
f 34//46 36//46 35//46
f 31//47 36//47 32//47
f 34//48 32//48 36//48
