mtllib mis_obj_reproblock_SD.mtl

v -8.000000 10.000000 -8.000000
v 8.000000 10.000000 8.000000
v 8.000000 10.000000 -8.000000
v -8.000000 10.000000 8.000000
v -10.000000 8.000000 8.000000
v -8.000000 10.000000 8.000000
v 8.000000 8.000000 10.000000
v 8.000000 10.000000 8.000000
v -8.000000 8.000000 10.000000
v 8.000000 10.000000 8.000000
v 10.000000 8.000000 -8.000000
v 8.000000 10.000000 -8.000000
v 10.000000 8.000000 8.000000
v 8.000000 10.000000 -8.000000
v -8.000000 8.000000 -10.000000
v -8.000000 10.000000 -8.000000
v 8.000000 8.000000 -10.000000
v 8.000000 8.000000 10.000000
v -8.000000 -8.000000 10.000000
v 8.000000 -8.000000 10.000000
v -8.000000 8.000000 10.000000
v 8.000000 8.000000 10.000000
v 10.000000 -8.000000 8.000000
v 10.000000 8.000000 8.000000
v 8.000000 -8.000000 10.000000
v 10.000000 -8.000000 -8.000000
v 10.000000 8.000000 8.000000
v 10.000000 -8.000000 8.000000
v 10.000000 8.000000 -8.000000
v 10.000000 8.000000 -8.000000
v 8.000000 -8.000000 -10.000000
v 8.000000 8.000000 -10.000000
v 10.000000 -8.000000 -8.000000
v -8.000000 8.000000 -10.000000
v 8.000000 -8.000000 -10.000000
v -8.000000 -8.000000 -10.000000
v 8.000000 8.000000 -10.000000
v -8.000000 8.000000 -10.000000
v -10.000000 -8.000000 -8.000000
v -10.000000 8.000000 -8.000000
v -8.000000 -8.000000 -10.000000
v -10.000000 -8.000000 8.000000
v -10.000000 8.000000 -8.000000
v -10.000000 -8.000000 -8.000000
v -10.000000 8.000000 8.000000
v -10.000000 8.000000 8.000000
v -8.000000 -8.000000 10.000000
v -8.000000 8.000000 10.000000
v -10.000000 -8.000000 8.000000
v 8.000000 -10.000000 8.000000
v -8.000000 -8.000000 10.000000
v -8.000000 -10.000000 8.000000
v 8.000000 -8.000000 10.000000
v 10.000000 -8.000000 8.000000
v 8.000000 -10.000000 -8.000000
v 10.000000 -8.000000 -8.000000
v 8.000000 -10.000000 8.000000
v 8.000000 -8.000000 -10.000000
v -8.000000 -10.000000 -8.000000
v -8.000000 -8.000000 -10.000000
v 8.000000 -10.000000 -8.000000
v -10.000000 -8.000000 -8.000000
v -8.000000 -10.000000 8.000000
v -10.000000 -8.000000 8.000000
v -8.000000 -10.000000 -8.000000
v -8.000000 -10.000000 -8.000000
v 8.000000 -10.000000 8.000000
v -8.000000 -10.000000 8.000000
v 8.000000 -10.000000 -8.000000
v 8.000000 10.000000 8.000000
v 8.000000 8.000000 10.000000
v 10.000000 8.000000 8.000000
v 8.000000 10.000000 -8.000000
v 10.000000 8.000000 -8.000000
v 8.000000 8.000000 -10.000000
v -8.000000 10.000000 -8.000000
v -8.000000 8.000000 -10.000000
v -10.000000 8.000000 -8.000000
v -10.000000 8.000000 -8.000000
v -8.000000 10.000000 8.000000
v -10.000000 8.000000 8.000000
v -8.000000 8.000000 10.000000
v 10.000000 -8.000000 8.000000
v 8.000000 -8.000000 10.000000
v 8.000000 -10.000000 8.000000
v 8.000000 -8.000000 -10.000000
v 10.000000 -8.000000 -8.000000
v 8.000000 -10.000000 -8.000000
v -10.000000 -8.000000 -8.000000
v -8.000000 -8.000000 -10.000000
v -8.000000 -10.000000 -8.000000
v -8.000000 -8.000000 10.000000
v -10.000000 -8.000000 8.000000
v -8.000000 -10.000000 8.000000

vt 0.999664 0.899933
vt 0.002380 -0.000702
vt 0.999664 -0.000702
vt 0.002380 0.899933
vt 0.002380 0.994202
vt 0.999664 0.899933
vt 0.002380 0.994202
vt 0.002380 0.899933
vt 0.999664 0.994202
vt 0.999664 0.899933
vt 0.002380 0.994202
vt 0.002380 0.899933
vt 0.999664 0.994202
vt 0.002380 0.994202
vt 0.999664 0.899933
vt 0.999664 0.994202
vt 0.002380 0.899933
vt 0.999664 -0.000702
vt 0.002380 0.899933
vt 0.002380 -0.000702
vt 0.999664 0.899933
vt 0.002380 0.899933
vt 0.999664 0.994202
vt 0.002380 0.994202
vt 0.999664 0.899933
vt 0.002380 0.899933
vt 0.999664 -0.000702
vt 0.999664 0.899933
vt 0.002380 -0.000702
vt 0.002380 0.899933
vt 0.999664 0.994202
vt 0.002380 0.994202
vt 0.999664 0.899933
vt 0.002380 -0.000702
vt 0.999664 0.899933
vt 0.002380 0.899933
vt 0.999664 -0.000702
vt 0.002380 0.899933
vt 0.999664 0.994202
vt 0.002380 0.994202
vt 0.999664 0.899933
vt 0.002380 0.899933
vt 0.999664 -0.000702
vt 0.999664 0.899933
vt 0.002380 -0.000702
vt 0.002380 0.899933
vt 0.999664 0.994202
vt 0.002380 0.994202
vt 0.999664 0.899933
vt 0.002380 0.994202
vt 0.999664 0.899933
vt 0.999664 0.994202
vt 0.002380 0.899933
vt 0.999664 0.899933
vt 0.002380 0.994202
vt 0.002380 0.899933
vt 0.999664 0.994202
vt 0.002380 0.994202
vt 0.999664 0.899933
vt 0.999664 0.994202
vt 0.002380 0.899933
vt 0.999664 0.899933
vt 0.002380 0.994202
vt 0.002380 0.899933
vt 0.999664 0.994202
vt 0.002380 0.899933
vt 0.999664 -0.000702
vt 0.999664 0.899933
vt 0.002380 -0.000702
vt 0.438202 0.541260
vt 0.524963 0.390594
vt 0.611725 0.541260
vt 0.611725 0.541260
vt 0.438202 0.541260
vt 0.524963 0.390594
vt 0.438202 0.541260
vt 0.524963 0.390594
vt 0.611725 0.541260
vt 0.999664 0.994202
vt 0.611725 0.541260
vt 0.438202 0.541260
vt 0.524963 0.390594
vt 0.438202 0.541260
vt 0.524963 0.390594
vt 0.611725 0.541260
vt 0.524963 0.390594
vt 0.611725 0.541260
vt 0.438202 0.541260
vt 0.438202 0.541260
vt 0.524963 0.390594
vt 0.611725 0.541260
vt 0.524963 0.390594
vt 0.611725 0.541260
vt 0.438202 0.541260

vn -0.382686 0.923878 0.000000
vn 0.258673 0.930686 0.258673
vn 0.258673 0.930686 -0.258673
vn -0.382686 0.923878 0.000000
vn -0.707107 0.707107 0.000000
vn 0.000000 0.707107 0.707107
vn 0.000000 0.707107 0.707107
vn 0.000000 0.707107 0.707107
vn 0.000000 0.707107 0.707107
vn 0.707107 0.707107 0.000000
vn 0.707107 0.707107 0.000000
vn 0.707107 0.707107 0.000000
vn 0.707107 0.707107 0.000000
vn 0.000000 0.707107 -0.707107
vn 0.000000 0.707107 -0.707107
vn 0.000000 0.707107 -0.707107
vn 0.000000 0.707107 -0.707107
vn 0.382686 0.000000 0.923878
vn -0.258673 -0.258673 0.930686
vn 0.382686 0.000000 0.923878
vn -0.258673 0.258673 0.930686
vn 0.382686 0.000000 0.923878
vn 0.707107 0.000000 0.707107
vn 0.707107 0.000000 0.707107
vn 0.382686 0.000000 0.923878
vn 1.000000 0.000000 0.000000
vn 1.000000 0.000000 0.000000
vn 1.000000 0.000000 0.000000
vn 1.000000 0.000000 0.000000
vn 0.707107 0.000000 -0.707107
vn 0.382686 0.000000 -0.923878
vn 0.382686 0.000000 -0.923878
vn 0.707107 0.000000 -0.707107
vn -0.258673 0.258673 -0.930686
vn 0.382686 0.000000 -0.923878
vn -0.258673 -0.258673 -0.930686
vn 0.382686 0.000000 -0.923878
vn -0.707107 0.000000 -0.707107
vn -0.707107 0.000000 -0.707107
vn -0.707107 0.000000 -0.707107
vn -0.707107 0.000000 -0.707107
vn -1.000000 0.000000 0.000000
vn -1.000000 0.000000 0.000000
vn -1.000000 0.000000 0.000000
vn -1.000000 0.000000 0.000000
vn -0.707107 0.000000 0.707107
vn -0.707107 0.000000 0.707107
vn -0.707107 0.000000 0.707107
vn -0.707107 0.000000 0.707107
vn 0.000000 -0.707107 0.707107
vn 0.000000 -0.707107 0.707107
vn 0.000000 -0.707107 0.707107
vn 0.000000 -0.707107 0.707107
vn 0.707107 -0.707107 0.000000
vn 0.707107 -0.707107 0.000000
vn 0.707107 -0.707107 0.000000
vn 0.707107 -0.707107 0.000000
vn 0.000000 -0.707107 -0.707107
vn 0.000000 -0.707107 -0.707107
vn 0.000000 -0.707107 -0.707107
vn 0.000000 -0.707107 -0.707107
vn -0.707107 -0.707107 0.000000
vn -0.382686 -0.923878 0.000000
vn -0.707107 -0.707107 0.000000
vn -0.382686 -0.923878 0.000000
vn -0.382686 -0.923878 0.000000
vn 0.258673 -0.930686 0.258673
vn -0.382686 -0.923878 0.000000
vn 0.258673 -0.930686 -0.258673
vn 0.258673 0.930686 0.258673
vn 0.577350 0.577350 0.577350
vn 0.577350 0.577350 0.577350
vn 0.258673 0.930686 -0.258673
vn 0.577350 0.577350 -0.577350
vn 0.577350 0.577350 -0.577350
vn -0.577350 0.577350 -0.577350
vn -0.258673 0.258673 -0.930686
vn -0.577350 0.577350 -0.577350
vn -0.707107 0.707107 0.000000
vn -0.577350 0.577350 0.577350
vn -0.577350 0.577350 0.577350
vn -0.258673 0.258673 0.930686
vn 0.577350 -0.577350 0.577350
vn 0.577350 -0.577350 0.577350
vn 0.258673 -0.930686 0.258673
vn 0.577350 -0.577350 -0.577350
vn 0.577350 -0.577350 -0.577350
vn 0.258673 -0.930686 -0.258673
vn -0.577350 -0.577350 -0.577350
vn -0.258673 -0.258673 -0.930686
vn -0.577350 -0.577350 -0.577350
vn -0.258673 -0.258673 0.930686
vn -0.577350 -0.577350 0.577350
vn -0.577350 -0.577350 0.577350

g polygon0
s 1
usemtl mat2
f 1/1/1 2/2/2 3/3/3
f 1/1/1 4/4/4 2/2/2
f 5/5/5 4/4/4 1/1/1
f 6/6/6 7/7/7 8/8/8
f 6/6/6 9/9/9 7/7/7
f 10/10/10 11/11/11 12/12/12
f 10/10/10 13/13/13 11/11/11
f 14/14/14 15/15/15 16/16/16
f 14/14/14 17/17/17 15/15/15
f 18/18/18 19/19/19 20/20/20
f 18/18/18 21/21/21 19/19/19
f 22/22/22 23/23/23 24/24/24
f 22/22/22 25/25/25 23/23/23
f 26/26/26 27/27/27 28/28/28
f 26/26/26 29/29/29 27/27/27
f 30/30/30 31/31/31 32/32/32
f 30/30/30 33/33/33 31/31/31
f 34/34/34 35/35/35 36/36/36
f 34/34/34 37/37/37 35/35/35
f 38/38/38 39/39/39 40/40/40
f 38/38/38 41/41/41 39/39/39
f 42/42/42 43/43/43 44/44/44
f 42/42/42 45/45/45 43/43/43
f 46/46/46 47/47/47 48/48/48
f 46/46/46 49/49/49 47/47/47
f 50/50/50 51/51/51 52/52/52
f 50/50/50 53/53/53 51/51/51
f 54/54/54 55/55/55 56/56/56
f 54/54/54 57/57/57 55/55/55
f 58/58/58 59/59/59 60/60/60
f 58/58/58 61/61/61 59/59/59
f 62/62/62 63/63/63 64/64/64
f 62/62/62 65/65/65 63/63/63
f 66/66/66 67/67/67 68/68/68
f 66/66/66 69/69/69 67/67/67
f 70/70/70 71/71/71 72/72/72
f 73/73/73 74/74/74 75/75/75
f 76/76/76 77/77/77 78/78/78
f 79/79/79 5/5/5 1/1/1
f 80/80/80 81/81/81 82/82/82
f 83/83/83 84/84/84 85/85/85
f 86/86/86 87/87/87 88/88/88
f 89/89/89 90/90/90 91/91/91
f 92/92/92 93/93/93 94/94/94

v 7.835449 9.515137 7.835449
v -7.835449 9.515137 -7.835449
v 7.835449 9.515137 -7.835449
v -7.835449 9.515137 7.835449
v -7.835449 9.515137 7.835449
v 7.835449 7.835449 9.515137
v -7.835449 7.835449 9.515137
v 7.835449 9.515137 7.835449
v 7.835449 9.515137 7.835449
v 9.515137 7.835449 -7.835449
v 9.515137 7.835449 7.835449
v 7.835449 9.515137 -7.835449
v 7.835449 9.515137 -7.835449
v -7.835449 7.835449 -9.515137
v 7.835449 7.835449 -9.515137
v -7.835449 9.515137 -7.835449
v -9.515137 7.835449 7.835449
v -9.515137 7.835449 -7.835449
v 7.835449 7.835449 9.515137
v -7.835449 -7.835449 9.515137
v -7.835449 7.835449 9.515137
v 7.835449 -7.835449 9.515137
v 7.835449 7.835449 9.515137
v 9.515137 -7.835449 7.835449
v 7.835449 -7.835449 9.515137
v 9.515137 7.835449 7.835449
v 9.515137 -7.835449 -7.835449
v 9.515137 7.835449 7.835449
v 9.515137 7.835449 -7.835449
v 9.515137 -7.835449 7.835449
v 9.515137 7.835449 -7.835449
v 7.835449 -7.835449 -9.515137
v 9.515137 -7.835449 -7.835449
v 7.835449 7.835449 -9.515137
v -7.835449 7.835449 -9.515137
v 7.835449 -7.835449 -9.515137
v 7.835449 7.835449 -9.515137
v -7.835449 -7.835449 -9.515137
v -7.835449 7.835449 -9.515137
v -9.515137 -7.835449 -7.835449
v -7.835449 -7.835449 -9.515137
v -9.515137 7.835449 -7.835449
v -9.515137 -7.835449 7.835449
v -9.515137 7.835449 -7.835449
v -9.515137 7.835449 7.835449
v -9.515137 -7.835449 -7.835449
v -9.515137 7.835449 7.835449
v -7.835449 -7.835449 9.515137
v -9.515137 -7.835449 7.835449
v -7.835449 7.835449 9.515137
v 7.835449 -9.515137 7.835449
v -7.835449 -7.835449 9.515137
v 7.835449 -7.835449 9.515137
v -7.797363 -9.538086 7.810547
v 9.515137 -7.835449 7.835449
v 7.835449 -9.515137 -7.835449
v 7.835449 -9.515137 7.835449
v 9.515137 -7.835449 -7.835449
v 7.835449 -7.835449 -9.515137
v -7.835449 -9.515137 -7.835449
v 7.835449 -9.515137 -7.835449
v -7.835449 -7.835449 -9.515137
v -9.515137 -7.835449 -7.835449
v -7.797363 -9.538086 7.810547
v -7.835449 -9.515137 -7.835449
v -9.515137 -7.835449 7.835449
v 7.835449 -9.515137 7.835449
v -7.835449 -9.515137 -7.835449
v -7.797363 -9.538086 7.810547
v 7.835449 -9.515137 -7.835449
v 7.835449 7.835449 9.515137
v 7.835449 9.515137 7.835449
v 9.515137 7.835449 7.835449
v 9.515137 7.835449 -7.835449
v 7.835449 9.515137 -7.835449
v 7.835449 7.835449 -9.515137
v -7.835449 7.835449 -9.515137
v -7.835449 9.515137 -7.835449
v -9.515137 7.835449 -7.835449
v -9.515137 7.835449 7.835449
v -7.835449 9.515137 7.835449
v -7.835449 7.835449 9.515137
v 7.835449 -7.835449 9.515137
v 9.515137 -7.835449 7.835449
v 7.835449 -9.515137 7.835449
v 9.515137 -7.835449 -7.835449
v 7.835449 -7.835449 -9.515137
v 7.835449 -9.515137 -7.835449
v -7.835449 -7.835449 -9.515137
v -9.515137 -7.835449 -7.835449
v -7.835449 -9.515137 -7.835449
v -9.515137 -7.835449 7.835449
v -7.835449 -7.835449 9.515137
v -7.797363 -9.538086 7.810547

vt 0.002380 -0.000702
vt 0.999664 0.899933
vt 0.999664 -0.000702
vt 0.002380 0.899933
vt 0.999664 0.899933
vt 0.002380 0.994202
vt 0.999664 0.994202
vt 0.002380 0.899933
vt 0.999664 0.899933
vt 0.002380 0.994202
vt 0.999664 0.994202
vt 0.002380 0.899933
vt 0.002380 0.994202
vt 0.999664 0.899933
vt 0.002380 0.899933
vt 0.999664 0.994202
vt 0.002380 0.994202
vt 0.999664 0.994202
vt 0.999664 -0.000702
vt 0.002380 0.899933
vt 0.999664 0.899933
vt 0.002380 -0.000702
vt 0.002380 0.899933
vt 0.999664 0.994202
vt 0.999664 0.899933
vt 0.002380 0.994202
vt 0.002380 0.899933
vt 0.999664 -0.000702
vt 0.002380 -0.000702
vt 0.999664 0.899933
vt 0.002380 0.899933
vt 0.999664 0.994202
vt 0.999664 0.899933
vt 0.002380 0.994202
vt 0.002380 -0.000702
vt 0.999664 0.899933
vt 0.999664 -0.000702
vt 0.002380 0.899933
vt 0.002380 0.899933
vt 0.999664 0.994202
vt 0.999664 0.899933
vt 0.002380 0.994202
vt 0.002380 0.899933
vt 0.999664 -0.000702
vt 0.002380 -0.000702
vt 0.999664 0.899933
vt 0.002380 0.899933
vt 0.999664 0.994202
vt 0.999664 0.899933
vt 0.002380 0.994202
vt 0.002380 0.994202
vt 0.999664 0.899933
vt 0.002380 0.899933
vt 0.999664 0.994202
vt 0.999664 0.899933
vt 0.002380 0.994202
vt 0.999664 0.994202
vt 0.002380 0.899933
vt 0.002380 0.994202
vt 0.999664 0.899933
vt 0.002380 0.899933
vt 0.999664 0.994202
vt 0.999664 0.899933
vt 0.002380 0.994202
vt 0.999664 0.994202
vt 0.002380 0.899933
vt 0.999664 -0.000702
vt 0.002380 0.899933
vt 0.999664 0.899933
vt 0.002380 -0.000702
vt 0.524963 0.390594
vt 0.438202 0.541260
vt 0.611725 0.541260
vt 0.438202 0.541260
vt 0.611725 0.541260
vt 0.524963 0.390594
vt 0.524963 0.390594
vt 0.438202 0.541260
vt 0.611725 0.541260
vt 0.438202 0.541260
vt 0.611725 0.541260
vt 0.524963 0.390594
vt 0.524963 0.390594
vt 0.438202 0.541260
vt 0.611725 0.541260
vt 0.611725 0.541260
vt 0.524963 0.390594
vt 0.438202 0.541260
vt 0.524963 0.390594
vt 0.438202 0.541260
vt 0.611725 0.541260
vt 0.611725 0.541260
vt 0.524963 0.390594
vt 0.438202 0.541260

vn -0.258673 -0.930686 -0.258673
vn 0.382686 -0.923878 0.000000
vn -0.258673 -0.930686 0.258673
vn 0.382686 -0.923878 0.000000
vn 0.000000 -0.707107 -0.707107
vn 0.000000 -0.707107 -0.707107
vn 0.000000 -0.707107 -0.707107
vn 0.000000 -0.707107 -0.707107
vn -0.707107 -0.707107 0.000000
vn -0.707107 -0.707107 0.000000
vn -0.707107 -0.707107 0.000000
vn -0.707107 -0.707107 0.000000
vn 0.000000 -0.707107 0.707107
vn 0.000000 -0.707107 0.707107
vn 0.000000 -0.707107 0.707107
vn 0.000000 -0.707107 0.707107
vn 0.707107 -0.707107 0.000000
vn 0.707107 -0.707107 0.000000
vn -0.382686 0.000000 -0.923878
vn 0.258907 0.265072 -0.928819
vn 0.258673 -0.258673 -0.930686
vn -0.382686 0.000000 -0.923878
vn -0.382686 0.000000 -0.923878
vn -0.707107 0.000000 -0.707107
vn -0.382686 0.000000 -0.923878
vn -0.707107 0.000000 -0.707107
vn -1.000000 0.000000 0.000000
vn -1.000000 0.000000 0.000000
vn -1.000000 0.000000 0.000000
vn -1.000000 0.000000 0.000000
vn -0.707107 0.000000 0.707107
vn -0.382686 0.000000 0.923878
vn -0.707107 0.000000 0.707107
vn -0.382686 0.000000 0.923878
vn 0.258673 -0.258673 0.930686
vn -0.382686 0.000000 0.923878
vn -0.382686 0.000000 0.923878
vn 0.258673 0.258673 0.930686
vn 0.707107 0.000000 0.707107
vn 0.707107 0.000000 0.707107
vn 0.707107 0.000000 0.707107
vn 0.707107 0.000000 0.707107
vn 1.000000 0.000000 0.000000
vn 1.000000 0.000000 0.000000
vn 1.000000 0.000000 0.000000
vn 1.000000 0.000000 0.000000
vn 0.707107 0.000000 -0.707107
vn 0.707107 0.000000 -0.707107
vn 0.707107 0.000000 -0.707107
vn 0.707107 0.000000 -0.707107
vn 0.000000 0.707137 -0.707076
vn 0.000061 0.707503 -0.706710
vn 0.000000 0.707107 -0.707107
vn 0.000122 0.707534 -0.706679
vn -0.707107 0.707107 0.000000
vn -0.707107 0.707107 0.000000
vn -0.707107 0.707107 0.000000
vn -0.707107 0.707107 0.000000
vn 0.000000 0.707107 0.707107
vn 0.000000 0.707107 0.707107
vn 0.000000 0.707107 0.707107
vn 0.000000 0.707107 0.707107
vn 0.706801 0.707412 -0.000610
vn 0.380559 0.924756 0.000793
vn 0.382990 0.923753 0.000000
vn 0.703987 0.710213 0.000000
vn -0.259339 0.930604 -0.258301
vn 0.382990 0.923753 0.000000
vn 0.380559 0.924756 0.000793
vn -0.258673 0.930686 0.258673
vn -0.577350 -0.577350 -0.577350
vn -0.258673 -0.930686 -0.258673
vn -0.577350 -0.577350 -0.577350
vn -0.577350 -0.577350 0.577350
vn -0.258673 -0.930686 0.258673
vn -0.577350 -0.577350 0.577350
vn 0.258673 -0.258673 0.930686
vn 0.577350 -0.577350 0.577350
vn 0.577350 -0.577350 0.577350
vn 0.577350 -0.577350 -0.577350
vn 0.577350 -0.577350 -0.577350
vn 0.258673 -0.258673 -0.930686
vn -0.577350 0.577350 -0.577350
vn -0.577350 0.577350 -0.577350
vn -0.259339 0.930604 -0.258301
vn -0.577350 0.577350 0.577350
vn -0.577350 0.577350 0.577350
vn -0.258673 0.930686 0.258673
vn 0.258673 0.258673 0.930686
vn 0.577350 0.577350 0.577350
vn 0.577350 0.577350 0.577350
vn 0.572777 0.586389 -0.572777
vn 0.258907 0.265072 -0.928819
vn 0.572777 0.586389 -0.572777

g polygon1
s 1
usemtl mat1
f 95/95/95 96/96/96 97/97/97
f 95/95/95 98/98/98 96/96/96
f 99/99/99 100/100/100 101/101/101
f 99/99/99 102/102/102 100/100/100
f 103/103/103 104/104/104 105/105/105
f 103/103/103 106/106/106 104/104/104
f 107/107/107 108/108/108 109/109/109
f 107/107/107 110/110/110 108/108/108
f 96/96/96 111/111/111 112/112/112
f 96/96/96 98/98/98 111/111/111
f 113/113/113 114/114/114 115/115/115
f 113/113/113 116/116/116 114/114/114
f 117/117/117 118/118/118 119/119/119
f 117/117/117 120/120/120 118/118/118
f 121/121/121 122/122/122 123/123/123
f 121/121/121 124/124/124 122/122/122
f 125/125/125 126/126/126 127/127/127
f 125/125/125 128/128/128 126/126/126
f 129/129/129 130/130/130 131/131/131
f 129/129/129 132/132/132 130/130/130
f 133/133/133 134/134/134 135/135/135
f 133/133/133 136/136/136 134/134/134
f 137/137/137 138/138/138 139/139/139
f 137/137/137 140/140/140 138/138/138
f 141/141/141 142/142/142 143/143/143
f 141/141/141 144/144/144 142/142/142
f 145/145/145 146/146/146 147/147/147
f 145/145/145 148/148/148 146/146/146
f 149/149/149 150/150/150 151/151/151
f 149/149/149 152/152/152 150/150/150
f 153/153/153 154/154/154 155/155/155
f 153/153/153 156/156/156 154/154/154
f 157/157/157 158/158/158 159/159/159
f 157/157/157 160/160/160 158/158/158
f 161/161/161 162/162/162 163/163/163
f 161/161/161 164/164/164 162/162/162
f 165/165/165 166/166/166 167/167/167
f 168/168/168 169/169/169 170/170/170
f 171/171/171 172/172/172 173/173/173
f 174/174/174 175/175/175 176/176/176
f 177/177/177 178/178/178 179/179/179
f 180/180/180 181/181/181 182/182/182
f 183/183/183 184/184/184 185/185/185
f 186/186/186 187/187/187 188/188/188

